<svg xmlns="http://www.w3.org/2000/svg" viewBox="0 0 64 64">
  <path d="M48 8c-2 0-3.5 1-4.5 2.5L34 26l-6 10-8 12c-3 4.5-7 8-12 9.5-1.5.5-2.5 1.5-2 3 .5 1.2 2 1.5 3.5 1 6.5-2 11.5-6.5 15-12l8-12 6-10 9-14c1-1.5.5-3.5-1-4.5-.8-.4-1.6-.5-2.5-.5z" fill="#DC2626"/>
  <path d="M8 56c2-1 3.5-2.5 5-4.5 1.5 1 3 .8 4-.5s.5-3-1-4c-1.2-.8-2.5-1-3.8-.2C10 49.5 8.5 52.5 8 56z" fill="#DC2626"/>
  <path d="M13 47.5c1.8.5 3.2-.2 4-1.5.5-1 .2-2.5-1-3.2-1.5-1-3-.5-3.8.8-.8 1.5-.5 3.2.8 3.9z" fill="#B91C1C"/>
  <path d="M48 8c-2 0-3.5 1-4.5 2.5L34 26" stroke="#EF4444" stroke-width="1.5" fill="none" stroke-linecap="round" opacity="0.6"/>
</svg>
